<mxfile host="65bd71144e">
    <diagram id="atdU7lhfAjNlDVjj9iLJ" name="Page-1">
        <mxGraphModel dx="1204" dy="790" grid="1" gridSize="10" guides="1" tooltips="1" connect="1" arrows="1" fold="1" page="1" pageScale="1" pageWidth="850" pageHeight="1100" math="0" shadow="0">
            <root>
                <mxCell id="0"/>
                <mxCell id="1" parent="0"/>
                <mxCell id="13" style="edgeStyle=none;html=1;entryX=0.5;entryY=0;entryDx=0;entryDy=0;" edge="1" parent="1" source="2" target="4">
                    <mxGeometry relative="1" as="geometry"/>
                </mxCell>
                <mxCell id="14" style="edgeStyle=none;html=1;entryX=0.5;entryY=0;entryDx=0;entryDy=0;" edge="1" parent="1" source="2" target="3">
                    <mxGeometry relative="1" as="geometry"/>
                </mxCell>
                <mxCell id="15" style="edgeStyle=none;html=1;entryX=0.56;entryY=0.008;entryDx=0;entryDy=0;entryPerimeter=0;" edge="1" parent="1" source="2" target="5">
                    <mxGeometry relative="1" as="geometry"/>
                </mxCell>
                <mxCell id="2" value="App" style="swimlane;" vertex="1" parent="1">
                    <mxGeometry x="305" y="20" width="140" height="70" as="geometry"/>
                </mxCell>
                <mxCell id="12" style="edgeStyle=none;html=1;entryX=0.5;entryY=0;entryDx=0;entryDy=0;" edge="1" parent="1" source="3" target="6">
                    <mxGeometry relative="1" as="geometry"/>
                </mxCell>
                <mxCell id="3" value="Start View" style="swimlane;startSize=23;" vertex="1" parent="1">
                    <mxGeometry x="140" y="130" width="150" height="130" as="geometry"/>
                </mxCell>
                <mxCell id="27" style="edgeStyle=none;html=1;" edge="1" parent="1" source="4" target="16">
                    <mxGeometry relative="1" as="geometry"/>
                </mxCell>
                <mxCell id="4" value="Trivia View" style="swimlane;" vertex="1" parent="1">
                    <mxGeometry x="300" y="130" width="150" height="130" as="geometry"/>
                </mxCell>
                <mxCell id="5" value="Result View" style="swimlane;" vertex="1" parent="1">
                    <mxGeometry x="460" y="130" width="150" height="130" as="geometry"/>
                </mxCell>
                <mxCell id="25" style="edgeStyle=none;html=1;entryX=-0.007;entryY=0.16;entryDx=0;entryDy=0;entryPerimeter=0;" edge="1" parent="1" source="6" target="21">
                    <mxGeometry relative="1" as="geometry"/>
                </mxCell>
                <mxCell id="29" style="edgeStyle=none;html=1;entryX=0.447;entryY=-0.02;entryDx=0;entryDy=0;entryPerimeter=0;" edge="1" parent="1" target="30">
                    <mxGeometry relative="1" as="geometry">
                        <mxPoint x="590" y="380" as="targetPoint"/>
                        <mxPoint x="210" y="380" as="sourcePoint"/>
                    </mxGeometry>
                </mxCell>
                <mxCell id="6" value="Form" style="swimlane;startSize=23;" vertex="1" parent="1">
                    <mxGeometry x="60" y="280" width="150" height="150" as="geometry"/>
                </mxCell>
                <mxCell id="7" value="Username" style="text;html=1;align=center;verticalAlign=middle;resizable=0;points=[];autosize=1;strokeColor=none;fillColor=none;" vertex="1" parent="6">
                    <mxGeometry y="30" width="70" height="20" as="geometry"/>
                </mxCell>
                <mxCell id="10" value="Category" style="text;html=1;align=center;verticalAlign=middle;resizable=0;points=[];autosize=1;strokeColor=none;fillColor=none;" vertex="1" parent="6">
                    <mxGeometry x="1" y="90" width="60" height="20" as="geometry"/>
                </mxCell>
                <mxCell id="9" value="Num of questions" style="text;html=1;align=center;verticalAlign=middle;resizable=0;points=[];autosize=1;strokeColor=none;fillColor=none;" vertex="1" parent="6">
                    <mxGeometry y="70" width="110" height="20" as="geometry"/>
                </mxCell>
                <mxCell id="8" value="Difficulty" style="text;html=1;align=center;verticalAlign=middle;resizable=0;points=[];autosize=1;strokeColor=none;fillColor=none;" vertex="1" parent="6">
                    <mxGeometry x="1" y="50" width="60" height="20" as="geometry"/>
                </mxCell>
                <mxCell id="11" value="Submit" style="text;html=1;align=center;verticalAlign=middle;resizable=0;points=[];autosize=1;strokeColor=none;fillColor=none;" vertex="1" parent="1">
                    <mxGeometry x="61" y="388" width="50" height="20" as="geometry"/>
                </mxCell>
                <mxCell id="16" value="Question" style="swimlane;startSize=23;" vertex="1" parent="1">
                    <mxGeometry x="300" y="280" width="150" height="100" as="geometry"/>
                </mxCell>
                <mxCell id="17" value="Question text" style="text;html=1;align=center;verticalAlign=middle;resizable=0;points=[];autosize=1;strokeColor=none;fillColor=none;" vertex="1" parent="16">
                    <mxGeometry x="-1" y="30" width="90" height="20" as="geometry"/>
                </mxCell>
                <mxCell id="20" value="Input" style="text;html=1;align=center;verticalAlign=middle;resizable=0;points=[];autosize=1;strokeColor=none;fillColor=none;" vertex="1" parent="16">
                    <mxGeometry y="50" width="40" height="20" as="geometry"/>
                </mxCell>
                <mxCell id="26" style="edgeStyle=none;html=1;entryX=0.5;entryY=1;entryDx=0;entryDy=0;" edge="1" parent="1" source="21" target="16">
                    <mxGeometry relative="1" as="geometry"/>
                </mxCell>
                <mxCell id="21" value="Questions" style="swimlane;startSize=23;" vertex="1" parent="1">
                    <mxGeometry x="300" y="408" width="150" height="100" as="geometry"/>
                </mxCell>
                <mxCell id="22" value="Difficulty" style="text;html=1;align=center;verticalAlign=middle;resizable=0;points=[];autosize=1;strokeColor=none;fillColor=none;" vertex="1" parent="21">
                    <mxGeometry y="31" width="60" height="20" as="geometry"/>
                </mxCell>
                <mxCell id="23" value="Num of questions" style="text;html=1;align=center;verticalAlign=middle;resizable=0;points=[];autosize=1;strokeColor=none;fillColor=none;" vertex="1" parent="21">
                    <mxGeometry y="50" width="110" height="20" as="geometry"/>
                </mxCell>
                <mxCell id="28" value="Category" style="text;html=1;align=center;verticalAlign=middle;resizable=0;points=[];autosize=1;strokeColor=none;fillColor=none;" vertex="1" parent="21">
                    <mxGeometry x="1" y="70" width="60" height="20" as="geometry"/>
                </mxCell>
                <mxCell id="41" style="edgeStyle=none;html=1;entryX=0.5;entryY=1;entryDx=0;entryDy=0;" edge="1" parent="1" source="30" target="5">
                    <mxGeometry relative="1" as="geometry"/>
                </mxCell>
                <mxCell id="30" value="Users" style="swimlane;startSize=23;" vertex="1" parent="1">
                    <mxGeometry x="480" y="408" width="150" height="100" as="geometry"/>
                </mxCell>
                <mxCell id="31" value="Name" style="text;html=1;align=center;verticalAlign=middle;resizable=0;points=[];autosize=1;strokeColor=none;fillColor=none;" vertex="1" parent="30">
                    <mxGeometry y="31" width="50" height="20" as="geometry"/>
                </mxCell>
                <mxCell id="32" value="ID" style="text;html=1;align=center;verticalAlign=middle;resizable=0;points=[];autosize=1;strokeColor=none;fillColor=none;" vertex="1" parent="30">
                    <mxGeometry y="50" width="30" height="20" as="geometry"/>
                </mxCell>
                <mxCell id="38" style="edgeStyle=none;html=1;entryX=0.5;entryY=1;entryDx=0;entryDy=0;" edge="1" parent="1" source="34" target="30">
                    <mxGeometry relative="1" as="geometry"/>
                </mxCell>
                <mxCell id="39" style="edgeStyle=none;html=1;" edge="1" parent="1" source="34">
                    <mxGeometry relative="1" as="geometry">
                        <mxPoint x="370" y="510" as="targetPoint"/>
                    </mxGeometry>
                </mxCell>
                <mxCell id="34" value="Global API" style="swimlane;startSize=23;" vertex="1" parent="1">
                    <mxGeometry x="390" y="540" width="150" height="100" as="geometry"/>
                </mxCell>
                <mxCell id="35" value="Users" style="text;html=1;align=center;verticalAlign=middle;resizable=0;points=[];autosize=1;strokeColor=none;fillColor=none;" vertex="1" parent="34">
                    <mxGeometry x="1" y="29" width="50" height="20" as="geometry"/>
                </mxCell>
                <mxCell id="36" value="Trivia" style="text;html=1;align=center;verticalAlign=middle;resizable=0;points=[];autosize=1;strokeColor=none;fillColor=none;" vertex="1" parent="34">
                    <mxGeometry x="1" y="50" width="40" height="20" as="geometry"/>
                </mxCell>
                <mxCell id="40" value="Highscore" style="text;html=1;align=center;verticalAlign=middle;resizable=0;points=[];autosize=1;strokeColor=none;fillColor=none;" vertex="1" parent="1">
                    <mxGeometry x="480" y="477" width="70" height="20" as="geometry"/>
                </mxCell>
            </root>
        </mxGraphModel>
    </diagram>
</mxfile>